<svg viewBox="0 0 79.374998 79.375002" height="300" width="300" xmlns="http://www.w3.org/2000/svg"><path style="fill:#c00;stroke-width:.791782" d="M0 79.375h79.375V0H0Z"></path><path style="fill:#fff;stroke-width:.791782" d="M16.124 39.687a6.047 6.047 0 0 1 6.047-6.046h4.587v-3.425h-4.625c-5.223 0-9.472 4.25-9.472 9.471 0 5.223 4.249 9.471 9.472 9.471h8.905c.497 0 .898-.489.898-.895V30.72c0-.967.607-1.782 1.51-2.027.769-.21 1.848.002 2.57 1.228A93763.48 93763.48 0 0 1 46.945 48.76c.28.474.665.7 1.029.6.23-.061.5-.285.5-.706V30.72c0-.968.605-1.784 1.504-2.029.764-.208 1.838.006 2.56 1.23l5.148 8.875 5.78 9.963c.28.475.665.701 1.03.601.23-.061.499-.285.499-.706V25.421H61.56v13.832s-5.735-9.881-5.999-10.328c-3.641-6.186-10.521-3.63-10.522 1.695v8.633s-5.735-9.881-5.998-10.328C35.4 22.739 28.52 25.295 28.52 30.62v14.15c.001.515-.386.963-.949.964h-5.4a6.047 6.047 0 0 1-6.047-6.047"></path><path style="fill:#fff;stroke-width:.791782" d="M66.365 25.42v23.234c0 .967-.606 1.783-1.51 2.029a2.044 2.044 0 0 1-.534.071c-.684 0-1.47-.339-2.036-1.301l-5.784-9.97-5.144-8.867c-.28-.475-.66-.7-1.02-.603-.227.062-.493.285-.493.708v17.933c0 .968-.607 1.783-1.51 2.029-.77.21-1.849-.003-2.57-1.23l-5.378-9.269-5.55-9.568c-.28-.476-.666-.701-1.03-.601-.23.061-.5.284-.5.706v17.542c0 1.207-1.06 2.265-2.268 2.265h-8.906c-5.977 0-10.84-4.862-10.84-10.84 0-5.979 4.863-10.843 10.84-10.843h4.626v-3.424h-4.621c-7.88 0-14.268 6.386-14.268 14.266s6.389 14.267 14.268 14.267h8.99c3.42.002 5.617-2 5.613-5.696v-8.137s5.735 9.882 6 10.33c3.64 6.184 10.521 3.628 10.521-1.696V40.12s5.736 9.882 5.999 10.33c3.642 6.184 10.522 3.628 10.522-1.696V25.42z"></path></svg>